<svg width="67" height="118" viewBox="0 0 67 118" fill="none" xmlns="http://www.w3.org/2000/svg">
<path d="M33.3968 3.13281C41.4234 3.13281 49.1212 6.32137 54.7969 11.997C60.4725 17.6727 63.6612 25.3706 63.6612 33.3972V84.3242C63.6612 92.3507 60.4727 100.048 54.7971 105.724C49.1215 111.4 41.4237 114.588 33.3972 114.588C25.3707 114.588 17.673 111.4 11.9974 105.724C6.32181 100.048 3.1333 92.3507 3.1333 84.3242V33.3972C3.1333 25.3707 6.3217 17.673 11.9972 11.9973C17.6727 6.3217 25.3704 3.13304 33.3968 3.13281Z" fill="#FAFCFF" stroke="#241F20" stroke-width="6.26656" stroke-miterlimit="10"/>
<path d="M20.8941 91.8566C18.5418 89.5043 16.9399 86.5073 16.291 83.2446C15.642 79.9819 15.9751 76.6 17.2481 73.5266C18.5212 70.4532 20.677 67.8264 23.443 65.9782C26.209 64.13 29.4609 63.1436 32.7876 63.1436C36.1142 63.1436 39.3661 64.13 42.1321 65.9782C44.8981 67.8264 47.0539 70.4532 48.3269 73.5266C49.6 76.6 49.9332 79.9819 49.2842 83.2446C48.6352 86.5073 47.0333 89.5043 44.6811 91.8566C43.1192 93.4185 41.265 94.6575 39.2243 95.5028C37.1836 96.348 34.9964 96.7831 32.7876 96.7831C30.5787 96.7831 28.3915 96.348 26.3508 95.5028C24.3101 94.6575 22.4559 93.4185 20.8941 91.8566Z" fill="#00AC26"/>
<path d="M21.8408 48.0138C19.4886 45.6615 17.8867 42.6645 17.2377 39.4018C16.5888 36.1391 16.9218 32.7572 18.1949 29.6839C19.468 26.6105 21.6238 23.9836 24.3898 22.1354C27.1558 20.2873 30.4077 19.3008 33.7343 19.3008C37.061 19.3008 40.3129 20.2873 43.0789 22.1354C45.8449 23.9836 48.0007 26.6105 49.2738 29.6839C50.5469 32.7572 50.8799 36.1391 50.231 39.4018C49.582 42.6645 47.9801 45.6615 45.6279 48.0138C44.066 49.5757 42.2117 50.8147 40.171 51.66C38.1304 52.5053 35.9432 52.9403 33.7343 52.9403C31.5255 52.9403 29.3383 52.5053 27.2977 51.66C25.257 50.8147 23.4027 49.5757 21.8408 48.0138Z" fill="#2AC194"/>
</svg>
